<svg xmlns="http://www.w3.org/2000/svg" width="260" height="324" fill="none"><path fill="#fff" fill-rule="evenodd" d="M137.498 128.859c11.336-.812 26.877 1.436 30.156 14.366 1.017 4.705 3.02 6.771 6.386 9.848 21.365 27.356-53.178 31.954-57.01 5.278-8.073 2.942-16.861 3.565-24.938 6.537-4.382 1.62-8.354 4.174-12.161 6.845-15.524 11.03-30.828 22.375-46.296 33.485 5.986 2.757 17.366 13.285 12.729 20.36-1.08 1.378-2.684 2.328-4.102 3.335l-.748.535c-1.61 1.153-4.318 3.119-5.816 4.188l-.276.201c-.109.079-.23.167-.341.245 10.802 15.8 23.444 30.377 37.467 43.393 1.194 1.11.705 3.593-1.023 3.882l-2.059.303c-6.648.968-13.422 1.84-20.121 1.314-6.525-.71-10.456-6.488-14.917-10.673-8.907-9.108-17.198-18.823-24.75-29.085l-.157-.217c-2.35-3.213-5.47-6.497-5.699-10.646-.416-1.247.68-3.035 1.733-3.885l.36-.519c5.647-8.126 12.038-15.962 20.046-21.846a2.84 2.84 0 0 1 1.178-2.379l33.466-24.229c8.636-5.945 16.661-12.931 26.02-17.731 9.571-4.61 20.372-4.791 30.179-8.638.208-2.773 6.035-3.481 5.851-3.053 6.149-3.713 9.314-8.13 10.29-12.19.977-4.06-.237-7.762 4.553-9.024Zm82.76 86.985c10.348-15.576 20.212 1.658 24.52 12.045 5.09 14.215-5.451 31.701-12.26 43.956-2.508 3.403-5.807 10.581-10.228 11.102-11.138-.046-22.292-.83-33.436-1.064-7.197-1.786 2.9-12.605 9.874-8.653 2.113.791 3.169 3.191 5.229 3.961.751.16.803-.175 1.108-.923l.044-.104c.544-1.294 1.072-2.596 1.608-3.893 4.538-11.178 9.335-22.258 14.104-33.333 1.019-2.404-.41-4.386-2.268-5.817-1.422-1.171-7.537-4.03-1.776-2.772-2.218-5.151.448-10.38 3.481-14.505Zm-25.692-21.323c.996-.124 2.276.88 2.429 1.853 1.271 8.067-.145 16.042-1.843 23.932l-.312 1.445c-.626 2.878-1.326 5.812-2.887 8.335-1.594 2.574-4.005 4.514-6.772 5.694-8.879 3.539-19.921.039-26.452-6.578-4.178-5.726-.505-12.919.196-19.194-.663-1.691-.907-3.647-1.29-5.39l-.047-.208-1.489-6.504c-.329-1.434.716-3.397 2.434-3.2a151.34 151.34 0 0 0 36.033-.185Z" clip-rule="evenodd"/><path fill="#000" fill-rule="evenodd" d="M236.38 213.807c-.036-.161.156-.283.281-.163 2.106 2.031 3.594 4.627 5.227 7.032 1.555 2.291 3.247 4.493 4.407 7.021 1.077 2.35 1.772 4.734 1.979 7.317.207 2.564-.061 5.134-.513 7.659-.89 4.975-2.791 9.686-4.878 14.262-2.03 4.448-4.323 8.77-6.744 13.013l-.868 1.515c-1.059 1.845-2.129 3.685-3.275 5.472-1.426 2.224-2.727 4.519-4.608 6.375-1.335 1.32-3.851 0-3.243-1.888.264-.822.472-1.596.881-2.359.311-.581.662-1.145.991-1.718.659-1.145 1.312-2.295 1.971-3.441 1.384-2.407 2.842-4.77 4.213-7.185 2.379-4.189 4.625-8.457 6.611-12.848l.233-.519c1.828-4.067 3.559-8.279 4.362-12.678.845-4.635.088-9.004-1.557-13.36-.852-2.253-1.809-4.455-2.804-6.649l-.191-.419c-.961-2.094-1.98-4.176-2.475-6.439Zm-102.285-80.17c.019-.082.158-.088.171 0 .592 3.936-.725 8.099-2.869 11.373-1.17 1.788-2.613 3.403-4.314 4.701l-.133.1c-1.737 1.299-4.084 2.554-6.241 1.711a1.328 1.328 0 0 1-.19-.089c.243.376.467.772.695 1.167.678 1.177 1.286 2.397 1.948 3.584 1.183 2.124 2.592 4.024 4.373 5.688 7.122 6.65 17.122 8.23 26.513 8.154l.663-.006c4.125-.029 9.52.182 12.705-2.805 1.711-1.604 2.653-3.885 3.505-6.026.837-2.099 1.409-4.265 2.104-6.4-1.451-.995-2.782-2.21-3.828-3.631a14.72 14.72 0 0 1-2.389-4.922l-.071-.265c-.367-1.418-.737-3.293-.145-4.632.068-.154.321-.144.393 0 .319.641.38 1.363.577 2.048.228.797.486 1.589.826 2.344a17.005 17.005 0 0 0 2.567 4.071c.86 1.008 1.791 1.933 2.856 2.711.628-1.084 2.083-1.23 3.302-.873 1.634.478 3.246 1.091 4.821 1.739l.315.13c1.557.646 3.317 1.24 4.775 2.122.885.422 1.734.847 2.533 1.223 3.979 1.87 7.899 3.855 11.802 5.877l.836.434c1.635.852 3.255 1.712 4.677 2.9 1.448 1.209 2.571 2.862 3.628 4.411 2.415 3.542 4.69 7.186 7.077 10.747 4.821 7.186 9.642 14.372 14.491 21.541 1.173 1.735 2.495 3.428 3.547 5.237 1.008 1.729.981 3.504.784 5.434l-.037.354c-.376 3.54-1.024 6.939-3.009 9.975-3.125 4.772-8.048 7.743-13.255 9.789.636.474 1.233.985 1.992 1.311 1.166.499 2.41.757 3.672.86 1.346.108 2.862-.228 3.953.687.437.365.45 1.245 0 1.61-1.048.856-2.403.611-3.68.467l-.077-.008c-1.185-.131-2.353-.351-3.467-.786a9.777 9.777 0 0 1-.811-.362.165.165 0 0 1 .009.081c-.191 1.456-.603 2.833-1.038 4.224l-.277.882a495.65 495.65 0 0 1-1.711 5.393c-1.109 3.42-2.318 6.808-3.531 10.191l-1.047 2.92c-1.075 2.995-2.164 5.986-3.368 8.931-.743 1.818-1.491 3.635-2.237 5.451-.729 1.773-1.335 3.688-2.239 5.377-.744 1.39-2.772.395-2.447-1.034.427-1.874 1.232-3.734 1.847-5.558.625-1.852 1.238-3.705 1.874-5.553 1.105-3.209 2.33-6.375 3.562-9.538l1.22-3.136c1.197-3.072 2.408-6.142 3.702-9.175l.142-.332c1.344-3.172 2.733-6.739 5.176-9.197a.19.19 0 0 1 .12-.056 7.844 7.844 0 0 1-1.656-1.187l-.024-.025c-.196-.207-1.003-1.227-1.263-1.837-.338.12-.676.236-1.014.35-.589.199-1.077.055-1.422-.26l-.656.407c-.701.428-1.455.834-2.23.855-.976.026-1.743-.513-2.264-1.308-.469-.71-.748-1.477-1.342-2.114-.584-.625-1.259-1.153-1.95-1.656l-.814-.593c-1.492-1.09-2.939-2.191-4.14-3.63-.604-.727-1.414-1.59-1.781-2.463a1.441 1.441 0 0 1-.125-.481c-.08.545-.163 1.092-.245 1.638-1.153 7.674-2.085 15.401-2.383 23.161-.146 3.828-.211 7.66-.04 11.489.084 1.913.224 3.824.416 5.73.095.955.194 1.909.311 2.86l.026.22c.034.291.056.573.031.841.929.458 1.464 1.617 1.836 2.521.283.689.063 1.359-.393 1.843a7.974 7.974 0 0 1 1.438 1.748c.083.135-.095.241-.2.156-.67-.532-1.391-.97-2.143-1.306-.395.15-.826.19-1.223.081-.431-.119-.803-.406-1.071-.772a8.465 8.465 0 0 0-6.279 1.416 8.44 8.44 0 0 0-1.105.936c-.059.06-.12.136-.182.21l.42.161c.174.066.316.117.371.128.366.075.738.115 1.109.147l.558.046c2.14.177 4.273.236 6.264 1.132.418.188.272.833-.123.941-1.453.394-2.895.364-4.375.258l-.317-.024c-1.376-.105-2.852-.099-4.194-.479.321.879-.116 2.027-1.458 2.206-4.028.537-8.083.284-12.116-.072-4.073-.359-8.144-.699-12.228-.912-13.21-.696-26.44-.562-39.661-.373l-7.472.108c-5.959.084-11.918.149-17.877.104l-2.788-.026a181.054 181.054 0 0 1-3.536-.061l-.706-.023c-1.403-.051-3.26.16-4.479-.67-1.006-.685-1.23-1.94-.623-2.953.175-.291.416-.551.667-.805.516-4.406.805-8.834 1.101-13.26 1.027-15.488.427-30.895-1.941-46.227-6.355 1.943-12.613 4.38-18.71 6.994a285.065 285.065 0 0 0-9.822 4.419c-2.96 1.406-5.932 3.162-9.095 4.075-.288.255-.69.377-1.046.264l-.047-.017h-.002c-.325.076-.686.03-1.041-.183a23.66 23.66 0 0 1-.216-.133l-.107-.068c-1.114-.702-2.233-1.566-3.022-2.623-.956.888-1.985 1.701-2.997 2.526a332.557 332.557 0 0 0-3.28 2.705c-.43.361-.906.706-1.286 1.122l-.055.061a.551.551 0 0 0-.025.03c1.646 1.065 3.086 2.682 4.377 4.087 1.386 1.509 2.725 3.065 4.052 4.628l1.285 1.516c9.086 10.733 18.264 21.855 30.027 29.744 1.86 1.247.087 4.284-1.76 3.009-3.494-2.407-6.8-5.081-9.976-7.894-5.564-4.926-10.571-10.453-15.26-16.212a287.875 287.875 0 0 1-6.931-8.907l-.766-1.019a145.975 145.975 0 0 1-3.007-4.118l-.204-.293c-.852-1.23-1.759-2.613-2.308-4.03a2.19 2.19 0 0 1-.799.529c-.596.232-1.327-.256-1.472-.837-.355-1.41.87-2.249 1.867-2.997 1.21-.905 2.445-1.778 3.68-2.646l.442-.312c1.545-1.097 3.1-2.222 4.783-3.089a1.03 1.03 0 0 1 .182-.186c.08-.063.158-.125.239-.186-2.012-3.263-4.217-6.4-6.679-9.363a80.543 80.543 0 0 0-5.894-6.374l-.934-.905c-1.412-1.364-2.881-2.749-4.45-3.935l-.49.557a46.933 46.933 0 0 1-2.017 2.174 306.957 306.957 0 0 0-4.088 4.163c-2.245 2.325-4.415 4.72-6.577 7.119l-1.081 1.2c-2.252 2.5-4.665 4.954-6.712 7.625l-.103.136c-.893 1.199-1.53 2.526-1.114 4.049.4 1.469 1.353 2.771 2.175 4.039l.081.127c3.353 5.225 6.945 10.316 10.792 15.188 7.705 9.758 16.493 19.006 26.98 25.791 1.454.94.096 3.278-1.36 2.327-6.124-4.005-11.75-8.815-16.927-13.981-4.751-4.741-9.057-9.961-13.092-15.319a162.41 162.41 0 0 1-5.658-8.012c-1.751-2.648-3.777-5.372-5.047-8.293-.665-1.537-.91-3.2-.365-4.819.5-1.488 1.488-2.724 2.517-3.886l.096-.109a448.908 448.908 0 0 1 7.198-7.881c2.436-2.608 4.984-5.123 7.585-7.564a54.244 54.244 0 0 1 6.45-5.183c-.206-.145-.41-.285-.62-.42-.636-.414-.796-1.3-.238-1.862 1.523-1.539 3.279-2.877 4.93-4.278l4.66-3.954c3.16-2.68 6.32-5.362 9.48-8.044 5.678-4.817 11.323-9.667 16.98-14.505 2.36-2.017 4.74-4.008 7.116-6.006l4.22-3.552 2.063-1.734c1.058-.886 2.138-1.762 3.34-2.437 2.83-1.59 6.231-2.278 9.348-3.121l.208-.056a248.657 248.657 0 0 1 10.546-2.661 274.247 274.247 0 0 1 10.661-2.196c3.207-.596 6.49-1.107 9.76-1.183.812-.309 1.83-.417 2.629-.087.329.137.674.338.98.592 1.599-.563 3.177-.831 4.671-1.782 1.492-.949 2.812-2.196 3.923-3.57 2.297-2.844 3.499-6.205 4.306-9.716Zm36.763 96.332c-1.268-.089-2.409.435-3.541.993.638.277 1.276.552 1.914.824l4.246 1.814c1.403.598 2.888 1.118 4.221 1.855a.728.728 0 0 1 .229.191c1.386-.888 2.852-1.68 4.257-2.524l.967-.577c-1.673.56-3.388.841-5.205.315-2.424-.699-4.528-2.711-7.088-2.891Zm3.473-4.252-.228-.155c-1.229-.844-2.697-1.929-4.19-1.171-.703.358-1.28.935-1.973 1.319a8.635 8.635 0 0 1-2.242.867 9.918 9.918 0 0 1-4.157.054l.021 1.877c1.05.434 2.093.878 3.137 1.326.678-.232 1.33-.51 2.016-.816l.462-.207c1.321-.594 2.654-.991 4.114-.803 2.748.353 4.825 2.396 7.453 3.077 3.222.837 6.129-1.568 9.173-2.162a8.76 8.76 0 0 1 1.534-.166l.171-.001.076-.045c.655-.384 1.636-.752 2.092-1.399.496-.701.539-1.877.701-2.701.017-.082.034-.167.049-.249a4.67 4.67 0 0 0-.875.07c-.929.171-1.804.5-2.67.868-1.637.696-3.239 1.488-4.963 1.951-1.688.454-3.452.67-5.191.418-1.696-.245-3.105-1.01-4.51-1.952Zm.264-6.599-.254-.164c-.672-.429-1.442-.873-2.265-.715-.735.142-1.366.727-2.007 1.088-1.405.793-2.981 1.226-4.588 1.336a11.175 11.175 0 0 1-4.012-.469l.044 4.155c.471.15.959.258 1.473.296 1.559.116 3.08-.258 4.388-1.118l.661-.439c1.132-.745 2.195-1.335 3.693-1.064 1.483.271 2.727 1.222 3.94 2.05l.199.134c1.392.92 2.804 1.513 4.512 1.528 1.845.014 3.668-.499 5.385-1.131 1.705-.626 3.326-1.376 5.149-1.606.558-.07 1.238-.091 1.878.019a78.584 78.584 0 0 0 .67-4.447c-3.235-.871-6.222 1.946-9.226 2.815a9.952 9.952 0 0 1-5.383.011c-1.613-.451-2.881-1.385-4.257-2.279Zm.008-6.998c-.691-.133-1.373.186-1.96.514-1.498.831-2.791 1.987-4.488 2.424-2.182.562-4.569.078-6.737-.841l.03 3.849a9.219 9.219 0 0 0 5.871.24c1.523-.446 2.691-1.65 4.219-2.026 1.562-.386 3.034.365 4.293 1.218l.379.259c1.438.976 2.834 1.825 4.634 1.991 1.904.175 3.558-.421 5.259-1.211l.396-.183c2.153-.99 4.948-2.116 7.097-.99.169-1.598.292-3.196.374-4.796a2.72 2.72 0 0 0-.955-.192c-.843-.004-1.728.262-2.514.539-1.717.607-3.317 1.511-5.017 2.16-1.612.617-3.398.938-5.117.662-1.593-.256-2.789-1.089-3.89-2.23l-.16-.169c-.482-.514-.999-1.079-1.714-1.218Zm1.262-5.932c-.797-.421-1.766-.812-2.688-.689-.878.116-1.464.712-2.005 1.35l-.293.349c-.969 1.146-1.922 2.109-3.414 2.581-1.547.486-3.186.295-4.625-.417-.511-.253-.987-.568-1.464-.879l.025 3.371c.955.475 1.927.905 2.994 1.165 1.969.479 3.642.124 5.326-.962l.177-.115c1.268-.833 2.568-1.825 4.135-1.918 1.529-.092 2.676.756 3.683 1.794l.118.123c1.269 1.339 2.552 1.993 4.441 1.838 1.831-.149 3.544-.958 5.222-1.655l.152-.063c1.534-.63 3.302-1.279 4.986-1.038a5.06 5.06 0 0 1 1.39.4c.068-1.577.1-3.156.106-4.736-.957-.831-2.447-.968-3.644-.628-1.876.532-3.412 1.906-5.204 2.652-1.589.662-3.245.81-4.865.184-1.674-.647-2.986-1.879-4.553-2.707Zm18.16-6.641c-2.803.097-5.546 1.921-8.222 2.617-2.991.776-5.431-.282-8.095-1.457l-.344-.151c-1.366-.601-2.835-1.14-4.35-.895-1.476.241-2.782 1.059-4.052 1.799l-.243.14c-2.313 1.317-4.668 2.219-7.369 1.994.015.848.009 1.693.011 2.522.444.254.87.541 1.276.803l.146.092c1.287.806 2.614 1.335 4.149.838 1.483-.482 2.18-1.773 3.199-2.836.936-.977 2.157-1.57 3.526-1.514 1.472.059 2.865.708 4.081 1.501 1.217.793 2.394 1.817 3.818 2.215 3.194.887 5.93-2.492 8.951-3.018 1.268-.222 2.667.059 3.624.824a227.541 227.541 0 0 0-.106-5.474Zm-24.131-.765a338.735 338.735 0 0 0-5.571.266c-1.012.055-2.256.366-3.249.057a1.534 1.534 0 0 1-.104.294c.15.748.243 1.522.3 2.304a8.865 8.865 0 0 0 2.753-.123c2.17-.45 3.932-1.819 5.871-2.798Zm24.089-.628c-5.339.368-10.718.242-16.066.357l-.641.015c-.026 0-.051.003-.076.003a32.99 32.99 0 0 1 1.828.787l.605.278c1.433.659 2.891 1.198 4.494 1.082 1.718-.125 3.336-.827 4.942-1.393 1.531-.541 3.295-.905 4.929-.668l-.015-.461Z" clip-rule="evenodd"/><path fill="#fff" fill-rule="evenodd" d="M182.509 74.75c-6.967-9.871-24.473-10.983-35.536-10.92-21.85-.182-26.425 24.942-27.566 42.547-2.33.397-4.597 1.21-6.135 3.042-1.872 2.231-2.519 6.06-.763 8.555 1.166 1.657 3.007 2.211 4.933 2.303 6.378-.609 7.686 5.079 10.827 9.344 8.061 10.894 22.026 14.428 34.834 14.482 4.351.116 9.592.442 12.378-3.653 8.799-15.258 8.991-35.495 9.533-52.787.075-4.427.056-9.113-2.505-12.913Z" clip-rule="evenodd"/><path fill="#000" fill-rule="evenodd" d="M197.544 83.313c.088.167.154.352.19.554.114.639-.121 1.128-.43 1.602.04.331.063.652.08.934.099 1.585-.264 3.756-1.66 4.403a3.974 3.974 0 0 1-.067.078 1.21 1.21 0 0 1-.489.438 1.912 1.912 0 0 1-.162.103c-.015.013-.03.024-.045.035a.549.549 0 0 0-.034.025l.087-.094c-.773.308-1.519.372-2.315.278-.492.178-.986.31-1.402.414-1.3.32-2.975.578-4.242.03a2.622 2.622 0 0 1-.905-.622c.019.98.048 1.961.09 2.942.087 2.48.082 4.956.063 7.437a181.466 181.466 0 0 1-.249 8.376 73.556 73.556 0 0 1-.332 4.196 123.004 123.004 0 0 1-.445 4.068c-.404 2.781-1.069 5.584-1.881 8.272a52.56 52.56 0 0 1-1.178 3.502 32.439 32.439 0 0 1-.596 1.575c-1.126 2.724-2.529 5.353-4.424 7.623-1.035 1.239-2.178 2.353-3.454 3.289a15.59 15.59 0 0 1-3.353 2.008c-2.62 1.145-5.544 1.403-8.377 1.361-1.081-.015-2.226-.206-3.298-.384l-.065-.011a29.627 29.627 0 0 1-2.523-.537 26.766 26.766 0 0 1-2.203-.609c-.873-.23-1.71-.562-2.506-.991l-1.411-.531a13.721 13.721 0 0 1-1.718-.788l-1.534-.716a21.165 21.165 0 0 1-1.859-1.013.38.38 0 0 1-.163-.154 18.937 18.937 0 0 0-.196-.107c-.092-.05-.184-.099-.275-.151-.025-.013-.006-.087.028-.158-.028-.057-.023-.121.053-.178.057-.044.147-.032.243-.002-.009-.006-.015-.013-.022-.019-.105-.057-.209-.112-.312-.169a.17.17 0 0 1-.024-.283.17.17 0 0 1 .091-.034.008.008 0 0 1-.004-.002h-.002c-.019-.013-.004-.072.023-.138-.053-.067-.069-.15.023-.222.128-.1.414.064.547.141l.028.016c.083.046.167.09.25.135l.152.08a.117.117 0 0 1 .052-.052c-.196-.104-.39-.21-.584-.315h-.001c-.12-.064-.277-.197-.118-.322.127-.101.454.072.61.161a.136.136 0 0 1 .066-.025 2.208 2.208 0 0 0-.083-.046c-.042-.022-.084-.044-.124-.068-.19-.106-.061-.436.135-.326.023.015.047.028.07.042.134-.012.32.093.416.147l.015.008c.661.416 1.35.779 2.064 1.092.482.229.965.455 1.451.674.478.237.97.442 1.475.616 1.27.494 2.552.955 3.847 1.382 1.815.496 3.693.896 5.578 1.052.245.019.49.036.735.045l.802-.006.806-.005 2.843-.291.279-.028c.363-.051.718-.114 1.069-.188.184-.045.368-.091.549-.144a1.77 1.77 0 0 0 .127-.021l.063-.011c.446-.118.884-.26 1.321-.424.275-.112.547-.231.818-.355a14.432 14.432 0 0 0 2.6-1.596l1.556-1.549 1.556-1.55.949-1.293c1.225-1.752 2.195-3.705 3-5.698l1.28-3.69c.133-.444.26-.888.38-1.334l.729-2.99c.08-.366.159-.73.235-1.093.467-2.264.724-4.561.946-6.858.406-4.181.516-8.374.545-12.572.019-2.508-.002-5.017-.053-7.524a793.22 793.22 0 0 1-.071-4.362 550.292 550.292 0 0 0-.098-4.63.143.143 0 0 1 .028-.09c-.004-.181-.006-.363-.009-.547-.002-.12.045-.173.112-.184-.012-1.1-.021-2.2-.023-3.299 0-.072.034-.118.078-.146v-.279a12.437 12.437 0 0 0-.756-2.23 8.111 8.111 0 0 0-.368-.754 4.112 4.112 0 0 0-.65-1.008 4.528 4.528 0 0 0-.812-1.002 32.6 32.6 0 0 0-.388-.279 2.649 2.649 0 0 1-.406-.27 68.47 68.47 0 0 1-.376-.233l-.376-.232c-.146-.076-.051-.267.053-.317v-.007a.305.305 0 0 1-.076-.046 12.409 12.409 0 0 0-.951-.812.18.18 0 0 1-.182-.03 14.202 14.202 0 0 0-.595-.526 12.79 12.79 0 0 0-1.427-.811c-.796-.376-1.611-.7-2.448-.975-.163-.053-.327-.101-.49-.15l-.053-.015-.296-.015-.475-.023a231.163 231.163 0 0 0-35.772 1.206c-.443.05-.904.088-1.374.127-1.725.144-3.572.299-5.063 1.042-.081.04-.157.083-.232.126.129.825.438 1.632.738 2.417l.135.356c.52 1.381.987 2.79.94 4.285-.032 1.044-.256 2.047-.579 3.027-.165 1.398-.601 2.748-1.063 4.074-2.275 6.525-3.513 13.206-3.386 20.132a.98.98 0 0 1-.113.486l.004.027c.04.294.081.588.128.88.19 1.168-1.349 1.748-1.88.975a.222.222 0 0 1-.13.063c-.136.013-.357-.209-.421-.311a5.82 5.82 0 0 0-.262-.441.197.197 0 0 0-.034-.015l.085.174.087.179c.093.186-.265.277-.37.105-.095-.15-.19-.293-.285-.431-.055.04-.117.051-.157-.015a6.991 6.991 0 0 0-1.164-1.454c-.678-.553-1.419-.889-2.262-1.086a7.842 7.842 0 0 0-2.001-.023c-.754.089-1.549.277-2.231.621l-1.671 1.148a5.942 5.942 0 0 0-.391.45 7.93 7.93 0 0 0-.953 1.604l-.032.106a6.617 6.617 0 0 0-.302 1.471l-.008.953-.009.953a8.31 8.31 0 0 0 .619 2.393c.152.45.391.851.714 1.206.174.301.37.573.59.827.446.296.932.547 1.449.746h.001c.126.034.253.068.382.093a6.168 6.168 0 0 0 2.066.412c.9.061 1.781-.017 2.643-.235a7.09 7.09 0 0 0 1.546-.462 7.612 7.612 0 0 0 1.348-.869c.047-.03.116-.013.192.025.093-.067.186-.133.277-.207.042-.029.08.007.099.045l.026-.019c.167-.115.625.243.418.454.089.055.178.12.258.188.367.015 1.109.691.97.797a8.16 8.16 0 0 1-.647.501c.197.146.454.372.334.463-.216.205-.45.382-.699.534a6.525 6.525 0 0 1-.524.364 6.142 6.142 0 0 1-.605.308c.362.7.706 1.406 1.027 2.124.214.51.461 1.002.746 1.476.363.72.799 1.397 1.308 2.027.414.697.9 1.337 1.455 1.923a23.135 23.135 0 0 0 2.208 2.198c.313.222.632.437.963.636a15.79 15.79 0 0 0 2.707 1.642c.112.062.2.197.07.302-.005.003-.009.003-.013.007.313.177.627.353.944.526l.011.006c.128.069.364.197.179.347-.122.101-.5-.08-.726-.199l.045.025.054.03.012.007c.093.05.448.24.212.363a.544.544 0 0 1-.357-.061 7.245 7.245 0 0 1-.353-.144c.004.038-.017.074-.078.104a.566.566 0 0 1-.142.004c.258.146.516.29.776.431.076.04.435.239.198.362a.485.485 0 0 1-.336-.055 5.957 5.957 0 0 1-.579-.256c-.044-.026-.088-.049-.133-.074a.496.496 0 0 1-.101-.011c.207.112.416.22.627.326.125.067.334.205.155.344-.125.095-.461-.076-.66-.188a.31.31 0 0 1-.048.049c-.13.098-.438-.08-.593-.169a1.581 1.581 0 0 0-.056-.032c-1.048-.562-2.06-1.143-3.034-1.809a25.238 25.238 0 0 1-1.745-1.222c-1.088-.841-2.076-1.819-2.983-2.851-.619-.706-.955-1.103-1.555-1.959-.963-1.378-1.69-2.815-2.389-4.339-.011-.023.01-.083.042-.142-.144-.353-.283-.71-.422-1.08-.364.049-.729.083-1.091.104a9.146 9.146 0 0 1-2.478-.203 8.617 8.617 0 0 1-2.778-.831 14.702 14.702 0 0 1-1.464-.832 8.565 8.565 0 0 1-1.202-.772c-1.637-1.251-2.527-3.193-2.744-5.21a9.09 9.09 0 0 1-.104-2.682c.072-.64.216-1.274.425-1.885.386-1.355 1.107-2.608 2.15-3.557.176-.18.36-.351.556-.511a7.346 7.346 0 0 1 1.942-1.137c.135-.066.272-.127.409-.184l-.166-.385c-.06.017-.265-.017-.29-.089a34.179 34.179 0 0 1-.196-.556.283.283 0 0 1-.14.038v.214c.002.061-.114.442-.177.243-.04-.111-.078-.224-.116-.337l-.072-.215a.24.24 0 0 1-.108-.12.656.656 0 0 0-.021-.057c-.003-.002-.008-.002-.012-.003l-.003-.001v.065c.002.04-.103.345-.122.285a24.607 24.607 0 0 1-.896-3.077 16.207 16.207 0 0 1-.378-1.746 32.905 32.905 0 0 1-.273-1.6l-.019-.133a.75.75 0 0 0-.003-.014l-.003-.015c-.007-.057-.013-.117-.021-.174a38.353 38.353 0 0 1-.351-5.618.494.494 0 0 0-.05.024l-.03.015a12.14 12.14 0 0 1-1.719.577 5.895 5.895 0 0 1-4.578 2.565 6.04 6.04 0 0 1-1.986-.23 2.184 2.184 0 0 1-.206.036c-.333.044-.602-.027-.88-.101a3.806 3.806 0 0 0-.489-.107l-.186-.024c-.698-.09-1.294-.167-1.757-.583a1.432 1.432 0 0 1-.446-.06c-1.337.32-2.757-.387-3.227-1.868a4.997 4.997 0 0 1-1.87-1.977c-.827-1.06-1.489-2.361-1.9-3.728l-.007-.016-.011-.023a3.532 3.532 0 0 1-.316-1.421c-.222-1.384-.163-2.769.258-3.986a4.537 4.537 0 0 1 .421-1.973c.344-.756.869-1.627 1.55-2.131.002-.776.335-1.63.772-2.208.87-1.156 2.135-1.767 3.502-1.856.696-1.783 2.803-2.2 4.621-1.606.755-.772 1.861-1.14 2.965-1.01.933.112 1.731.558 2.392 1.174.174.05.347.101.52.155a2.908 2.908 0 0 1 1.87-.152c1.07.276 1.768 1.086 2.251 2.016.154.106.304.216.451.33.161.072.307.17.44.283a.997.997 0 0 1 .457.518c.273.28.526.578.751.897.168-.389.341-.775.52-1.158.291.088.643-.025.79-.415l.037-.099c.937-2.488 2.606-6.917 4.179-8.973a10.874 10.874 0 0 1-6.682 1.856c-1.213.21-2.445.23-3.577.002a18.71 18.71 0 0 1-2.744-1.262 3.195 3.195 0 0 1-.157-.145l-.061-.058c-.148.011-.304 0-.47-.044a2.796 2.796 0 0 1-1.56-1.112 2.19 2.19 0 0 1-.169-.304 4.831 4.831 0 0 1-.981-1.326 4.695 4.695 0 0 1-.492-1.93c-.123-.655-.114-1.329.114-1.955l.051-.126.031-.074a.924.924 0 0 0 .014-.053c.007-.026.013-.051.022-.076.067-.223.152-.422.255-.61.038-.193.101-.385.189-.572.01-.09.022-.18.037-.27-.672-1.267-.434-2.924.571-3.954a2.547 2.547 0 0 1 .408-1.962 3.146 3.146 0 0 1 1.179-1.015c.049-.025.178-.067.333-.116.173-.153.356-.298.556-.426.047-1.238 1.283-1.953 2.353-2.571l.154-.09c.348-.202.601-.492.854-.783.266-.306.532-.612.908-.815.66-.356 1.47-.438 2.23-.515.168-.017.334-.034.495-.053 2.097-.253 4.331-.448 6.438-.22 1.171.127 2.14.692 2.54 1.618 1.007.12 1.904.846 2.614 1.593.886.933 1.641 1.926 1.901 3.152.173.093.33.208.473.337a9.307 9.307 0 0 1-.356 2.539c.07.486-.076.95-.324 1.372a3.85 3.85 0 0 1-.073 1.182c.482.855.031 2.147-.644 2.994l-.005.479c.04-.021.08-.046.116-.077 1.941-1.652 3.916-2.108 6.05-2.6 1.232-.284 2.517-.58 3.878-1.126a68.356 68.356 0 0 1 10.215-1.197c-.046-.007-.091-.012-.136-.02-1.732-.283-3.395-.995-4.825-2.019a2.472 2.472 0 0 1-1.059-.553 2.312 2.312 0 0 1-.653-.942c-.056-.06-.112-.121-.167-.184-1.074-.263-1.892-1.193-1.755-2.414a3.202 3.202 0 0 1-.7-2.834c-.38-.642-.413-1.451-.129-2.13-.597-.724-.644-1.754-.176-2.575-.427-.608-.521-1.413.006-2.132.249-.34.594-.555.969-.658.106-.392.322-.756.661-1.036.174-.145.357-.252.543-.332.07-.404.299-.788.738-1.09.2-.136.404-.224.606-.273.192-.476.528-.893.999-1.163.569-.327 1.231-.37 1.834-.2.788-1.19 2.516-1.652 3.714-.768.998-.618 2.253-.488 3.149.263 1.084-.64 2.431-.382 3.281.512 1.363-.745 3.161-.195 3.89 1.216 1.375-.152 2.671.748 3.038 2.051l.177.148.015.013c.824.04 1.607.363 2.069 1.13.23.382.337.832.321 1.272.493.267.89.704 1.061 1.27a2.12 2.12 0 0 1-.111 1.513c.686.73.867 1.868.382 2.784.201.345.305.753.289 1.177-.025.627-.315 1.133-.711 1.565.497.898.303 2.05-.505 2.68-.465 1.648-1.641 2.744-3.442 3.416-.905.338-1.852.598-2.817.79 3.861.52 7.659 1.433 11.308 2.795a.526.526 0 0 0 .496-.042 7.5 7.5 0 0 0 .105.055c.045.023.091.046.135.07 1.006.552 1.99 1.15 2.949 1.79 0-.106.002-.211.007-.32a8.735 8.735 0 0 1 .304-2.551 3.98 3.98 0 0 1-.652-1.366c-.307-1.207.277-2.926 1.326-3.338.368-1.02 1.204-1.758 2.229-2.049.081-.073.167-.144.264-.21.216-.149.452-.25.694-.309a2.334 2.334 0 0 1 .946-1.418c.721-.504 1.574-.56 2.324-.284.143-.048.287-.09.433-.126 1.207-1.028 3.088-.952 4.15.25.729-.333 1.588-.348 2.334.101.597.359.969.938 1.114 1.573 1.13.034 2.164.785 2.49 1.904a2.404 2.404 0 0 1 2.075 1.96c.664.093 1.278.405 1.651 1.026.173.287.266.602.291.916.336.162.637.406.864.725.399.558.476 1.21.329 1.825a21.233 21.233 0 0 0 .103.203c.108.23.195.478.273.73.35.505.512 1.123.48 1.743.074.263.146.526.206.79.236 1.038.325 2.143.163 3.2a9.157 9.157 0 0 1-.362 1.503c-.017.093-.044.18-.076.262a8.002 8.002 0 0 1-.355 1.133c-.355.471-.726.93-1.117 1.374-.33.494-.706.95-1.131 1.37a8.092 8.092 0 0 1-.999.836 7.77 7.77 0 0 1-2.348 1.3 9.67 9.67 0 0 0-.455-.08c-.961.528-2.473.588-3.397.585-1.019-.004-1.952-.262-2.728-.748l.27.538c-.022.013-.047.024-.066.04-.168-.279-.355-.525-.575-.703-.302-.243-.787-.264-.996.128l-.011.021a.601.601 0 0 0-.011.575c.032.044.062.09.093.134l.034.038h-.006c.289.233.573.802.842 1.355.182.323.355.651.518.985.094.14.263.262.442.298a.724.724 0 0 0 .289.678c.052-.106.117-.215.199-.328.908-1.234 2.692-1.766 4.036-1.202.268-.046.537-.083.808-.104a9.844 9.844 0 0 1 2.662.195c.272.163.532.347.774.556.205.177.395.363.573.556.137.103.272.212.404.325.537.29.932.844 1.263 1.395.263.372.493.767.691 1.185.922 1.577 1.984 3.535 1.154 5.085Zm-73.875 30.469c.338.391.602.827.792 1.306.076.155-.017.248-.173.22a.705.705 0 0 1-.262-.129.817.817 0 0 0 .023.052l.023.052c.082.163.013.279-.175.217a.22.22 0 0 1-.03-.019c.097.174.186.351.262.537.083.165.009.279-.177.216a2.27 2.27 0 0 1-.279-.188l.033.072c.029.064.059.128.085.194.085.167-.013.254-.177.216a2.272 2.272 0 0 1-.395-.279l-.036-.031-.017-.016c.055.138-.049.222-.186.195-.195-.038-.56-.366-.649-.539-.006-.011-.01-.021-.017-.032a1.806 1.806 0 0 1-.3-.26c-.067.097-.198.169-.257.051a3.145 3.145 0 0 0-.833-1.247 3.247 3.247 0 0 0-.784-.806 8.637 8.637 0 0 0-.511-.399 4.656 4.656 0 0 0-.972-.321c-.038-.012-.077-.021-.116-.031a2.886 2.886 0 0 1-.089-.022l-.025-.005a8.105 8.105 0 0 0-2.258-.116c-.11.005-.216-.08-.262-.177a9.298 9.298 0 0 0-.41.025c-.226.009-.178-.31-.007-.342.216-.04.431-.07.643-.095a.111.111 0 0 1-.002-.057 7.624 7.624 0 0 0-1.16.029c-.169.009.031-.304.124-.321l.066-.011.063-.01a.065.065 0 0 1-.008-.017h-.011c-.232.011-.391-.359-.112-.41l.099-.016c.036-.006.071-.011.106-.018-.013-.036-.015-.067-.002-.097-.12-.002-.239-.002-.359-.002.031-.002.059-.069.088-.139.031-.075.064-.154.104-.159l.186-.025c.004-.079.123-.26.173-.271a9.233 9.233 0 0 1 1.183-.129c.038-.089.093-.207.146-.207.442-.006.866-.002 1.289.042.017-.012.034-.019.048-.017l.072.017.129.032c.235.034.469.082.708.152a6.001 6.001 0 0 1 1.616.759c.461.308.919.63 1.321 1.014.141.121.274.252.401.387a13.561 13.561 0 0 1 1.268 1.175Z" clip-rule="evenodd"/><path fill="#000" fill-rule="evenodd" d="M163.152 128.274a8.601 8.601 0 0 1-3.614-2.781 1.671 1.671 0 0 1-.338-1.297c.076-.467.352-.889.728-1.173.377-.284.849-.424 1.305-.353.397.062.791.279 1.104.73l.065.09a5.695 5.695 0 0 0 2.086 1.751 4.7 4.7 0 0 0 2.582.454c1.738-.196 2.935-1.136 4.208-2.413.158-.161.316-.327.474-.496a.746.746 0 0 1 .394-.303.864.864 0 0 1 .97.332c.097.143.153.32.135.524-.117 1.323-.808 2.503-1.79 3.43-1.091 1.03-2.537 1.742-3.898 1.992-1.499.275-3.027.078-4.411-.487Zm5.119-20.408c1.595.971 4.026 3.233 2.31 5.638-2.021 2.12-4.929-.311-6.362-1.411-1.329-.852-2.823 1.34-1.59 2.335 10.358 7.671 14.561-6.308 6.449-7.702-.894-.154-1.225.84-.807 1.14Zm-18.56-8.923c.176-2.189 3.508-2.686 3.84-.52.296 1.94-.053 3.723-.927 5.47-.834 1.668-2.932.89-3.091-.63-.213-2.037.068-2.958.178-4.32Zm25.365-.969c.465-.609 1.136-1.024 1.939-.79 2.511.735 1.771 4.301.889 6.037-.479.942-2.028 1.181-2.728.351-1.14-1.353-1.687-4.056-.236-5.39.039-.068.083-.138.136-.208Zm-22.487-8.608.397-.07c1.227-.212 2.752-.416 3.62.57.461.524.619 1.497 0 1.998-1.088.88-2.292.54-3.596.614a14.3 14.3 0 0 0-3.143.536c-2.272.65-4.123 1.835-6.063 3.137-.254.17-.514-.155-.393-.393 1.12-2.195 3.29-3.997 5.464-5.096 1.161-.587 2.43-1.073 3.714-1.296Zm20.198-.983.304.062c3.304.69 7.596 2.07 9.16 5.317.06.459-.003.557-.054.621l-.017.022c-.043.055-.076.13-.275.193a8.562 8.562 0 0 1-.168-.042c-.717-.188-1.284-.447-1.833-.716l-.596-.293c-.691-.34-1.388-.666-2.127-.907a25.038 25.038 0 0 0-4.844-1.07 1.988 1.988 0 0 1-.972-.37 1.464 1.464 0 0 1-.544-.827c-.116-.467-.082-.82.168-1.242.188-.316.458-.535.767-.661a1.798 1.798 0 0 1 1.031-.087Z" clip-rule="evenodd"/></svg>